<mxfile host="app.diagrams.net" modified="2022-06-25T12:18:20.643Z" agent="5.0 (Windows NT 10.0; Win64; x64) AppleWebKit/537.36 (KHTML, like Gecko) Chrome/103.0.5060.53 Safari/537.36 Edg/103.0.1264.37" etag="jyd-up-L7sxHBV2cMQqO" version="20.0.3" type="github">
  <diagram id="RLPOEAdhcGwVArlybR_r" name="Page-1">
    <mxGraphModel dx="1422" dy="762" grid="1" gridSize="10" guides="1" tooltips="1" connect="1" arrows="1" fold="1" page="1" pageScale="1" pageWidth="827" pageHeight="1169" math="0" shadow="0">
      <root>
        <mxCell id="0" />
        <mxCell id="1" parent="0" />
        <mxCell id="MGv8dR7Y4dB5yCq7bM32-1" value="" style="html=1;shadow=0;dashed=0;shape=mxgraph.bootstrap.rrect;rSize=5;strokeColor=#DFDFDF;html=1;whiteSpace=wrap;fillColor=#FFFFFF;fontColor=#000000;" parent="1" vertex="1">
          <mxGeometry x="120" y="290" width="130" height="180" as="geometry" />
        </mxCell>
        <mxCell id="MGv8dR7Y4dB5yCq7bM32-2" value="Approach" style="strokeColor=inherit;fillColor=inherit;gradientColor=inherit;fontColor=inherit;html=1;shadow=0;dashed=0;shape=mxgraph.bootstrap.topButton;rSize=5;perimeter=none;whiteSpace=wrap;resizeWidth=1;align=left;spacing=10;" parent="MGv8dR7Y4dB5yCq7bM32-1" vertex="1">
          <mxGeometry width="130" height="30" relative="1" as="geometry" />
        </mxCell>
        <mxCell id="MGv8dR7Y4dB5yCq7bM32-3" value="Battleshout" style="strokeColor=inherit;fillColor=inherit;gradientColor=inherit;fontColor=inherit;html=1;shadow=0;dashed=0;perimeter=none;whiteSpace=wrap;resizeWidth=1;align=left;spacing=10;" parent="MGv8dR7Y4dB5yCq7bM32-1" vertex="1">
          <mxGeometry width="130" height="30" relative="1" as="geometry">
            <mxPoint y="30" as="offset" />
          </mxGeometry>
        </mxCell>
        <mxCell id="MGv8dR7Y4dB5yCq7bM32-4" value="Bloodrage" style="strokeColor=inherit;fillColor=inherit;gradientColor=inherit;fontColor=inherit;html=1;shadow=0;dashed=0;perimeter=none;whiteSpace=wrap;resizeWidth=1;align=left;spacing=10;" parent="MGv8dR7Y4dB5yCq7bM32-1" vertex="1">
          <mxGeometry width="130" height="30" relative="1" as="geometry">
            <mxPoint y="60" as="offset" />
          </mxGeometry>
        </mxCell>
        <mxCell id="MGv8dR7Y4dB5yCq7bM32-5" value="Overpower" style="strokeColor=inherit;fillColor=inherit;gradientColor=inherit;fontColor=inherit;html=1;shadow=0;dashed=0;perimeter=none;whiteSpace=wrap;resizeWidth=1;align=left;spacing=10;" parent="MGv8dR7Y4dB5yCq7bM32-1" vertex="1">
          <mxGeometry width="130" height="30" relative="1" as="geometry">
            <mxPoint y="90" as="offset" />
          </mxGeometry>
        </mxCell>
        <mxCell id="MGv8dR7Y4dB5yCq7bM32-6" value="HeroicStrike" style="strokeColor=inherit;fillColor=inherit;gradientColor=inherit;fontColor=inherit;html=1;shadow=0;dashed=0;shape=mxgraph.bootstrap.bottomButton;rSize=5;perimeter=none;whiteSpace=wrap;resizeWidth=1;resizeHeight=0;align=left;spacing=10;" parent="MGv8dR7Y4dB5yCq7bM32-1" vertex="1">
          <mxGeometry y="1" width="130" height="30" relative="1" as="geometry">
            <mxPoint y="-30" as="offset" />
          </mxGeometry>
        </mxCell>
        <mxCell id="MGv8dR7Y4dB5yCq7bM32-16" value="Rend" style="strokeColor=inherit;fillColor=inherit;gradientColor=inherit;fontColor=inherit;html=1;shadow=0;dashed=0;perimeter=none;whiteSpace=wrap;resizeWidth=1;align=left;spacing=10;" parent="MGv8dR7Y4dB5yCq7bM32-1" vertex="1">
          <mxGeometry width="130" height="30" relative="1" as="geometry">
            <mxPoint y="120" as="offset" />
          </mxGeometry>
        </mxCell>
        <mxCell id="MGv8dR7Y4dB5yCq7bM32-70" value="" style="html=1;shadow=0;dashed=0;shape=mxgraph.bootstrap.checkbox2;labelPosition=right;verticalLabelPosition=middle;align=left;verticalAlign=middle;gradientColor=#DEDEDE;fillColor=#EDEDED;checked=1;spacing=5;checkedFill=#0085FC;checkedStroke=#ffffff;sketch=0;" parent="MGv8dR7Y4dB5yCq7bM32-1" vertex="1">
          <mxGeometry x="110" y="10" width="10" height="10" as="geometry" />
        </mxCell>
        <mxCell id="MGv8dR7Y4dB5yCq7bM32-71" value="" style="html=1;shadow=0;dashed=0;shape=mxgraph.bootstrap.checkbox2;labelPosition=right;verticalLabelPosition=middle;align=left;verticalAlign=middle;gradientColor=#DEDEDE;fillColor=#EDEDED;checked=0;spacing=5;fontColor=#6C767D;checkedFill=#0085FC;checkedStroke=#ffffff;sketch=0;" parent="MGv8dR7Y4dB5yCq7bM32-1" vertex="1">
          <mxGeometry x="90" y="10" width="10" height="10" as="geometry" />
        </mxCell>
        <mxCell id="MGv8dR7Y4dB5yCq7bM32-73" value="" style="html=1;shadow=0;dashed=0;shape=mxgraph.bootstrap.checkbox2;labelPosition=right;verticalLabelPosition=middle;align=left;verticalAlign=middle;gradientColor=#DEDEDE;fillColor=#EDEDED;checked=0;spacing=5;fontColor=#6C767D;checkedFill=#0085FC;checkedStroke=#ffffff;sketch=0;" parent="MGv8dR7Y4dB5yCq7bM32-1" vertex="1">
          <mxGeometry x="110" y="160" width="10" height="10" as="geometry" />
        </mxCell>
        <mxCell id="MGv8dR7Y4dB5yCq7bM32-74" value="" style="html=1;shadow=0;dashed=0;shape=mxgraph.bootstrap.checkbox2;labelPosition=right;verticalLabelPosition=middle;align=left;verticalAlign=middle;gradientColor=#DEDEDE;fillColor=#EDEDED;checked=1;spacing=5;checkedFill=#0085FC;checkedStroke=#ffffff;sketch=0;" parent="MGv8dR7Y4dB5yCq7bM32-1" vertex="1">
          <mxGeometry x="90" y="160" width="10" height="10" as="geometry" />
        </mxCell>
        <mxCell id="MGv8dR7Y4dB5yCq7bM32-75" value="" style="html=1;shadow=0;dashed=0;shape=mxgraph.bootstrap.checkbox2;labelPosition=right;verticalLabelPosition=middle;align=left;verticalAlign=middle;gradientColor=#DEDEDE;fillColor=#EDEDED;checked=1;spacing=5;checkedFill=#0085FC;checkedStroke=#ffffff;sketch=0;" parent="MGv8dR7Y4dB5yCq7bM32-1" vertex="1">
          <mxGeometry x="90" y="40" width="10" height="10" as="geometry" />
        </mxCell>
        <mxCell id="MGv8dR7Y4dB5yCq7bM32-76" value="" style="html=1;shadow=0;dashed=0;shape=mxgraph.bootstrap.checkbox2;labelPosition=right;verticalLabelPosition=middle;align=left;verticalAlign=middle;gradientColor=#DEDEDE;fillColor=#EDEDED;checked=1;spacing=5;checkedFill=#0085FC;checkedStroke=#ffffff;sketch=0;" parent="MGv8dR7Y4dB5yCq7bM32-1" vertex="1">
          <mxGeometry x="90" y="70" width="10" height="10" as="geometry" />
        </mxCell>
        <mxCell id="MGv8dR7Y4dB5yCq7bM32-77" value="" style="html=1;shadow=0;dashed=0;shape=mxgraph.bootstrap.checkbox2;labelPosition=right;verticalLabelPosition=middle;align=left;verticalAlign=middle;gradientColor=#DEDEDE;fillColor=#EDEDED;checked=1;spacing=5;checkedFill=#0085FC;checkedStroke=#ffffff;sketch=0;" parent="MGv8dR7Y4dB5yCq7bM32-1" vertex="1">
          <mxGeometry x="90" y="100" width="10" height="10" as="geometry" />
        </mxCell>
        <mxCell id="MGv8dR7Y4dB5yCq7bM32-78" value="" style="html=1;shadow=0;dashed=0;shape=mxgraph.bootstrap.checkbox2;labelPosition=right;verticalLabelPosition=middle;align=left;verticalAlign=middle;gradientColor=#DEDEDE;fillColor=#EDEDED;checked=1;spacing=5;checkedFill=#0085FC;checkedStroke=#ffffff;sketch=0;" parent="MGv8dR7Y4dB5yCq7bM32-1" vertex="1">
          <mxGeometry x="90" y="130" width="10" height="10" as="geometry" />
        </mxCell>
        <mxCell id="MGv8dR7Y4dB5yCq7bM32-79" value="" style="html=1;shadow=0;dashed=0;shape=mxgraph.bootstrap.checkbox2;labelPosition=right;verticalLabelPosition=middle;align=left;verticalAlign=middle;gradientColor=#DEDEDE;fillColor=#EDEDED;checked=0;spacing=5;fontColor=#6C767D;checkedFill=#0085FC;checkedStroke=#ffffff;sketch=0;" parent="MGv8dR7Y4dB5yCq7bM32-1" vertex="1">
          <mxGeometry x="110" y="70" width="10" height="10" as="geometry" />
        </mxCell>
        <mxCell id="MGv8dR7Y4dB5yCq7bM32-80" value="" style="html=1;shadow=0;dashed=0;shape=mxgraph.bootstrap.checkbox2;labelPosition=right;verticalLabelPosition=middle;align=left;verticalAlign=middle;gradientColor=#DEDEDE;fillColor=#EDEDED;checked=1;spacing=5;checkedFill=#0085FC;checkedStroke=#ffffff;sketch=0;" parent="MGv8dR7Y4dB5yCq7bM32-1" vertex="1">
          <mxGeometry x="110" y="130" width="10" height="10" as="geometry" />
        </mxCell>
        <mxCell id="MGv8dR7Y4dB5yCq7bM32-81" value="" style="html=1;shadow=0;dashed=0;shape=mxgraph.bootstrap.checkbox2;labelPosition=right;verticalLabelPosition=middle;align=left;verticalAlign=middle;gradientColor=#DEDEDE;fillColor=#EDEDED;checked=0;spacing=5;fontColor=#6C767D;checkedFill=#0085FC;checkedStroke=#ffffff;sketch=0;" parent="MGv8dR7Y4dB5yCq7bM32-1" vertex="1">
          <mxGeometry x="110" y="100" width="10" height="10" as="geometry" />
        </mxCell>
        <mxCell id="MGv8dR7Y4dB5yCq7bM32-82" value="" style="html=1;shadow=0;dashed=0;shape=mxgraph.bootstrap.checkbox2;labelPosition=right;verticalLabelPosition=middle;align=left;verticalAlign=middle;gradientColor=#DEDEDE;fillColor=#EDEDED;checked=1;spacing=5;checkedFill=#0085FC;checkedStroke=#ffffff;sketch=0;" parent="MGv8dR7Y4dB5yCq7bM32-1" vertex="1">
          <mxGeometry x="110" y="40" width="10" height="10" as="geometry" />
        </mxCell>
        <mxCell id="MGv8dR7Y4dB5yCq7bM32-22" value="ActionBar?" style="html=1;shadow=0;dashed=0;shape=mxgraph.bootstrap.rrect;rSize=5;strokeColor=none;strokeWidth=1;fillColor=#343A40;fontColor=#FFFFFF;whiteSpace=wrap;align=left;verticalAlign=middle;spacingLeft=0;fontStyle=1;fontSize=14;spacing=5;" parent="1" vertex="1">
          <mxGeometry x="300" y="340" width="90" height="20" as="geometry" />
        </mxCell>
        <mxCell id="MGv8dR7Y4dB5yCq7bM32-23" value="CoolDown?" style="html=1;shadow=0;dashed=0;shape=mxgraph.bootstrap.rrect;rSize=5;strokeColor=none;strokeWidth=1;fillColor=#343A40;fontColor=#FFFFFF;whiteSpace=wrap;align=left;verticalAlign=middle;spacingLeft=0;fontStyle=1;fontSize=14;spacing=5;" parent="1" vertex="1">
          <mxGeometry x="300" y="380" width="90" height="20" as="geometry" />
        </mxCell>
        <mxCell id="MGv8dR7Y4dB5yCq7bM32-24" value="" style="html=1;shadow=0;dashed=0;shape=mxgraph.bootstrap.rrect;rSize=5;strokeColor=#343A40;strokeWidth=1;fillColor=none;fontColor=#343A40;whiteSpace=wrap;align=center;verticalAlign=middle;spacingLeft=0;fontStyle=0;fontSize=16;spacing=5;" parent="1" vertex="1">
          <mxGeometry x="290" y="330" width="110" height="80" as="geometry" />
        </mxCell>
        <mxCell id="MGv8dR7Y4dB5yCq7bM32-25" value="" style="html=1;shadow=0;dashed=0;shape=mxgraph.bootstrap.rrect;rSize=5;strokeColor=#DFDFDF;html=1;whiteSpace=wrap;fillColor=#FFFFFF;fontColor=#000000;" parent="1" vertex="1">
          <mxGeometry x="500" y="340" width="60" height="60" as="geometry" />
        </mxCell>
        <mxCell id="MGv8dR7Y4dB5yCq7bM32-26" value="Given" style="strokeColor=inherit;fillColor=inherit;gradientColor=inherit;fontColor=inherit;html=1;shadow=0;dashed=0;shape=mxgraph.bootstrap.topButton;rSize=5;perimeter=none;whiteSpace=wrap;resizeWidth=1;align=left;spacing=10;" parent="MGv8dR7Y4dB5yCq7bM32-25" vertex="1">
          <mxGeometry width="60" height="30" relative="1" as="geometry" />
        </mxCell>
        <mxCell id="MGv8dR7Y4dB5yCq7bM32-28" value="Escape" style="strokeColor=inherit;fillColor=inherit;gradientColor=inherit;fontColor=inherit;html=1;shadow=0;dashed=0;shape=mxgraph.bootstrap.bottomButton;rSize=5;perimeter=none;whiteSpace=wrap;resizeWidth=1;resizeHeight=0;align=left;spacing=10;" parent="MGv8dR7Y4dB5yCq7bM32-25" vertex="1">
          <mxGeometry y="1" width="60" height="30" relative="1" as="geometry">
            <mxPoint y="-30" as="offset" />
          </mxGeometry>
        </mxCell>
        <mxCell id="MGv8dR7Y4dB5yCq7bM32-30" value="Key" style="text;html=1;strokeColor=none;fillColor=none;align=center;verticalAlign=middle;whiteSpace=wrap;rounded=0;" parent="1" vertex="1">
          <mxGeometry x="500" y="320" width="60" height="20" as="geometry" />
        </mxCell>
        <mxCell id="MGv8dR7Y4dB5yCq7bM32-31" value="ActionList" style="text;html=1;strokeColor=none;fillColor=none;align=center;verticalAlign=middle;whiteSpace=wrap;rounded=0;" parent="1" vertex="1">
          <mxGeometry x="135" y="270" width="60" height="20" as="geometry" />
        </mxCell>
        <mxCell id="MGv8dR7Y4dB5yCq7bM32-83" value="A&amp;nbsp; C" style="html=1;shadow=0;dashed=0;shape=mxgraph.bootstrap.rrect;rSize=5;strokeColor=none;strokeWidth=1;fillColor=#F8F9FA;fontColor=#000000;whiteSpace=wrap;align=left;verticalAlign=middle;spacingLeft=0;fontStyle=1;fontSize=14;spacing=5;" parent="1" vertex="1">
          <mxGeometry x="205" y="270" width="45" height="20" as="geometry" />
        </mxCell>
        <mxCell id="MGv8dR7Y4dB5yCq7bM32-84" value="" style="html=1;shadow=0;dashed=0;shape=mxgraph.basic.arc;startAngle=0.25;endAngle=1;strokeWidth=4;strokeColor=#0085FC;" parent="1" vertex="1">
          <mxGeometry x="460" y="410" width="20" height="20" as="geometry" />
        </mxCell>
        <mxCell id="MGv8dR7Y4dB5yCq7bM32-85" value="" style="endArrow=open;endFill=1;endSize=5;html=1;rounded=0;startSize=0;" parent="1" edge="1">
          <mxGeometry width="160" relative="1" as="geometry">
            <mxPoint x="250" y="389.5" as="sourcePoint" />
            <mxPoint x="300" y="390" as="targetPoint" />
          </mxGeometry>
        </mxCell>
        <mxCell id="MGv8dR7Y4dB5yCq7bM32-86" value="" style="endArrow=open;endFill=1;endSize=5;html=1;rounded=0;startSize=0;" parent="1" edge="1">
          <mxGeometry width="160" relative="1" as="geometry">
            <mxPoint x="390" y="390" as="sourcePoint" />
            <mxPoint x="510" y="360" as="targetPoint" />
          </mxGeometry>
        </mxCell>
        <mxCell id="MGv8dR7Y4dB5yCq7bM32-87" value="" style="endArrow=open;endFill=1;endSize=5;html=1;rounded=0;startSize=0;entryX=0.167;entryY=0.667;entryDx=0;entryDy=0;entryPerimeter=0;" parent="1" source="MGv8dR7Y4dB5yCq7bM32-84" target="MGv8dR7Y4dB5yCq7bM32-28" edge="1">
          <mxGeometry width="160" relative="1" as="geometry">
            <mxPoint x="490" y="390" as="sourcePoint" />
            <mxPoint x="570" y="395" as="targetPoint" />
          </mxGeometry>
        </mxCell>
        <mxCell id="MGv8dR7Y4dB5yCq7bM32-88" value="" style="endArrow=open;endFill=1;endSize=5;html=1;rounded=0;startSize=0;entryX=-0.133;entryY=0.233;entryDx=0;entryDy=0;entryPerimeter=0;" parent="1" target="MGv8dR7Y4dB5yCq7bM32-84" edge="1">
          <mxGeometry width="160" relative="1" as="geometry">
            <mxPoint x="390" y="390" as="sourcePoint" />
            <mxPoint x="466.65999999999985" y="426" as="targetPoint" />
          </mxGeometry>
        </mxCell>
        <mxCell id="MGv8dR7Y4dB5yCq7bM32-89" value="LastClicked Dict&amp;lt;Key,Time&amp;gt;" style="text;html=1;strokeColor=none;fillColor=none;align=center;verticalAlign=middle;whiteSpace=wrap;rounded=0;" parent="1" vertex="1">
          <mxGeometry x="425" y="480" width="90" height="20" as="geometry" />
        </mxCell>
        <mxCell id="MGv8dR7Y4dB5yCq7bM32-90" value="" style="html=1;shadow=0;dashed=0;shape=mxgraph.bootstrap.rrect;rSize=5;strokeColor=#DFDFDF;html=1;whiteSpace=wrap;fillColor=#FFFFFF;fontColor=#000000;" parent="1" vertex="1">
          <mxGeometry x="590" y="330" width="60" height="90" as="geometry" />
        </mxCell>
        <mxCell id="MGv8dR7Y4dB5yCq7bM32-91" value="Given1" style="strokeColor=inherit;fillColor=inherit;gradientColor=inherit;fontColor=inherit;html=1;shadow=0;dashed=0;shape=mxgraph.bootstrap.topButton;rSize=5;perimeter=none;whiteSpace=wrap;resizeWidth=1;align=left;spacing=10;" parent="MGv8dR7Y4dB5yCq7bM32-90" vertex="1">
          <mxGeometry width="60" height="30" relative="1" as="geometry" />
        </mxCell>
        <mxCell id="MGv8dR7Y4dB5yCq7bM32-92" value="... ..." style="strokeColor=inherit;fillColor=inherit;gradientColor=inherit;fontColor=inherit;html=1;shadow=0;dashed=0;shape=mxgraph.bootstrap.bottomButton;rSize=5;perimeter=none;whiteSpace=wrap;resizeWidth=1;resizeHeight=0;align=left;spacing=10;" parent="MGv8dR7Y4dB5yCq7bM32-90" vertex="1">
          <mxGeometry y="1" width="60" height="30" relative="1" as="geometry">
            <mxPoint y="-30" as="offset" />
          </mxGeometry>
        </mxCell>
        <mxCell id="MGv8dR7Y4dB5yCq7bM32-94" value="&lt;span style=&quot;color: rgb(0, 0, 0); font-family: Helvetica; font-size: 12px; font-style: normal; font-variant-ligatures: normal; font-variant-caps: normal; font-weight: 400; letter-spacing: normal; orphans: 2; text-align: left; text-indent: 0px; text-transform: none; widows: 2; word-spacing: 0px; -webkit-text-stroke-width: 0px; background-color: rgb(248, 249, 250); text-decoration-thickness: initial; text-decoration-style: initial; text-decoration-color: initial; float: none; display: inline !important;&quot;&gt;Given2&lt;/span&gt;" style="strokeColor=inherit;fillColor=inherit;gradientColor=inherit;fontColor=inherit;html=1;shadow=0;dashed=0;perimeter=none;whiteSpace=wrap;resizeWidth=1;align=left;spacing=10;" parent="MGv8dR7Y4dB5yCq7bM32-90" vertex="1">
          <mxGeometry y="30" width="60" height="30" as="geometry" />
        </mxCell>
        <mxCell id="MGv8dR7Y4dB5yCq7bM32-93" value="ExcuteList" style="text;html=1;strokeColor=none;fillColor=none;align=center;verticalAlign=middle;whiteSpace=wrap;rounded=0;" parent="1" vertex="1">
          <mxGeometry x="590" y="310" width="60" height="20" as="geometry" />
        </mxCell>
        <mxCell id="MGv8dR7Y4dB5yCq7bM32-95" value="" style="endArrow=open;endFill=1;endSize=5;html=1;rounded=0;startSize=0;entryX=-0.044;entryY=-0.156;entryDx=0;entryDy=0;entryPerimeter=0;exitX=0.833;exitY=0.5;exitDx=0;exitDy=0;exitPerimeter=0;" parent="1" source="MGv8dR7Y4dB5yCq7bM32-26" target="MGv8dR7Y4dB5yCq7bM32-94" edge="1">
          <mxGeometry width="160" relative="1" as="geometry">
            <mxPoint x="550" y="350" as="sourcePoint" />
            <mxPoint x="520" y="370" as="targetPoint" />
          </mxGeometry>
        </mxCell>
        <mxCell id="MGv8dR7Y4dB5yCq7bM32-99" value="" style="curved=1;endArrow=classic;html=1;rounded=0;startSize=0;endSize=5;" parent="1" edge="1">
          <mxGeometry width="50" height="50" relative="1" as="geometry">
            <mxPoint x="640" y="345" as="sourcePoint" />
            <mxPoint x="700" y="320" as="targetPoint" />
            <Array as="points">
              <mxPoint x="690" y="345" />
            </Array>
          </mxGeometry>
        </mxCell>
        <mxCell id="MGv8dR7Y4dB5yCq7bM32-100" value="Only Excute first given key" style="text;html=1;strokeColor=none;fillColor=none;align=center;verticalAlign=middle;whiteSpace=wrap;rounded=0;" parent="1" vertex="1">
          <mxGeometry x="670" y="290" width="150" height="20" as="geometry" />
        </mxCell>
        <mxCell id="MGv8dR7Y4dB5yCq7bM32-101" value="" style="curved=1;endArrow=classic;html=1;rounded=0;startSize=0;endSize=5;entryX=1;entryY=0.5;entryDx=0;entryDy=0;" parent="1" target="MGv8dR7Y4dB5yCq7bM32-89" edge="1">
          <mxGeometry width="50" height="50" relative="1" as="geometry">
            <mxPoint x="760" y="320" as="sourcePoint" />
            <mxPoint x="440" y="320" as="targetPoint" />
            <Array as="points">
              <mxPoint x="750" y="440" />
              <mxPoint x="630" y="490" />
            </Array>
          </mxGeometry>
        </mxCell>
        <mxCell id="MGv8dR7Y4dB5yCq7bM32-103" value="" style="endArrow=open;endFill=1;endSize=5;html=1;rounded=0;startSize=0;" parent="1" edge="1">
          <mxGeometry width="160" relative="1" as="geometry">
            <mxPoint x="470" y="470" as="sourcePoint" />
            <mxPoint x="470" y="440" as="targetPoint" />
          </mxGeometry>
        </mxCell>
        <mxCell id="MGv8dR7Y4dB5yCq7bM32-104" value="compute cooldown from dict" style="text;html=1;strokeColor=none;fillColor=none;align=center;verticalAlign=middle;whiteSpace=wrap;rounded=0;" parent="1" vertex="1">
          <mxGeometry x="300" y="450" width="170" height="20" as="geometry" />
        </mxCell>
        <mxCell id="av6z6smTz8OFn_1u3UOK-3" value="after excute given" style="text;html=1;strokeColor=none;fillColor=none;align=center;verticalAlign=middle;whiteSpace=wrap;rounded=0;" vertex="1" parent="1">
          <mxGeometry x="530" y="440" width="150" height="20" as="geometry" />
        </mxCell>
        <mxCell id="av6z6smTz8OFn_1u3UOK-4" value="&lt;span style=&quot;text-align: left;&quot;&gt;RaiseActionEvent(shouldloot,true)&lt;/span&gt;" style="rounded=1;whiteSpace=wrap;html=1;arcSize=40;fontColor=#000000;fillColor=#ffffc0;strokeColor=#ff0000;" vertex="1" parent="1">
          <mxGeometry x="520" y="530" width="200" height="20" as="geometry" />
        </mxCell>
        <mxCell id="av6z6smTz8OFn_1u3UOK-5" value="" style="edgeStyle=orthogonalEdgeStyle;html=1;verticalAlign=bottom;endArrow=open;endSize=8;strokeColor=#ff0000;rounded=0;exitX=0.45;exitY=0.967;exitDx=0;exitDy=0;exitPerimeter=0;" edge="1" source="MGv8dR7Y4dB5yCq7bM32-92" parent="1">
          <mxGeometry relative="1" as="geometry">
            <mxPoint x="617" y="530" as="targetPoint" />
          </mxGeometry>
        </mxCell>
        <mxCell id="av6z6smTz8OFn_1u3UOK-6" value="&lt;span style=&quot;text-align: left;&quot;&gt;RaiseActionEvent(fighting,true)&lt;/span&gt;" style="rounded=1;whiteSpace=wrap;html=1;arcSize=40;fontColor=#000000;fillColor=#ffffc0;strokeColor=#ff0000;" vertex="1" parent="1">
          <mxGeometry x="40" y="220" width="190" height="20" as="geometry" />
        </mxCell>
        <mxCell id="av6z6smTz8OFn_1u3UOK-7" value="" style="edgeStyle=orthogonalEdgeStyle;html=1;verticalAlign=bottom;endArrow=open;endSize=8;strokeColor=#ff0000;rounded=0;entryX=-0.015;entryY=0.667;entryDx=0;entryDy=0;exitX=0.5;exitY=1;exitDx=0;exitDy=0;entryPerimeter=0;" edge="1" source="av6z6smTz8OFn_1u3UOK-6" parent="1" target="MGv8dR7Y4dB5yCq7bM32-4">
          <mxGeometry relative="1" as="geometry">
            <mxPoint x="180" y="240" as="targetPoint" />
            <Array as="points">
              <mxPoint x="135" y="260" />
              <mxPoint x="70" y="260" />
              <mxPoint x="70" y="370" />
            </Array>
          </mxGeometry>
        </mxCell>
      </root>
    </mxGraphModel>
  </diagram>
</mxfile>
